<?xml version="1.0" encoding="UTF-8" standalone="no"?>
<!DOCTYPE svg PUBLIC "-//W3C//DTD SVG 1.1//EN" "http://www.w3.org/Graphics/SVG/1.1/DTD/svg11.dtd">
<svg width="100%" height="100%" viewBox="0 0 210 210" version="1.1" xmlns="http://www.w3.org/2000/svg" xmlns:xlink="http://www.w3.org/1999/xlink" xml:space="preserve" style="fill-rule:evenodd;clip-rule:evenodd;stroke-linejoin:round;stroke-miterlimit:1.41421;">
    <g transform="matrix(0.425532,0,0,0.425532,5,4.13245)">
        <path d="M439.196,186.932C435.812,184.545 431.133,185.352 428.744,188.738C426.356,192.123 427.164,196.802 430.549,199.19C441.703,207.058 454.999,219.638 454.999,234.884C454.999,258.483 422.013,283.099 366.35,298.686C360.11,277.816 351.738,256.002 341.498,233.947C351.337,212.482 359.416,191.24 365.471,170.967C380.102,175.005 393.537,179.747 405.425,185.134C406.429,185.589 407.481,185.805 408.516,185.805C411.37,185.805 414.097,184.167 415.351,181.399C417.061,177.627 415.389,173.182 411.616,171.472C399.061,165.782 384.889,160.782 369.483,156.534C372.71,143.945 375.082,131.83 376.538,120.376C382.612,119.014 387.963,115.175 391.138,109.677C394.143,104.473 394.941,98.409 393.386,92.604C391.83,86.798 388.107,81.947 382.903,78.942C381.052,77.873 379.061,77.088 377.003,76.582C373.958,54.994 365.241,39.499 351.559,31.601C328.441,18.255 294.573,27.997 256.194,59.035C249.017,64.839 241.818,71.276 234.648,78.266C227.399,71.187 220.121,64.671 212.864,58.803C174.485,27.766 140.617,18.022 117.499,31.369C103.71,39.33 94.963,55.001 91.984,76.856C90.286,77.357 88.641,78.049 87.095,78.942C81.89,81.947 78.167,86.798 76.611,92.604C75.056,98.41 75.854,104.473 78.859,109.677C81.869,114.891 86.834,118.62 92.518,120.154C93.992,131.746 96.406,144.015 99.693,156.768C87.197,160.243 75.528,164.214 64.888,168.648C60.85,164.806 55.395,162.44 49.395,162.44C36.988,162.44 26.895,172.534 26.895,184.94C26.895,186.493 27.053,188.01 27.354,189.475C9.437,203.122 0,218.735 0,234.884C0,261.578 25.372,286.037 71.441,303.756C80.054,307.069 89.226,310.084 98.861,312.798C94.891,328.123 92.173,342.762 90.835,356.365C90.429,360.487 93.442,364.158 97.564,364.563C97.814,364.587 98.062,364.6 98.307,364.6C102.119,364.599 105.381,361.705 105.762,357.833C107.028,344.969 109.604,331.104 113.363,316.567C134.461,321.616 157.445,325.297 181.574,327.492C195.276,346.882 209.68,364.641 224.265,380.147C182.689,421.009 144.596,437.499 124.059,425.641C110.855,418.018 106.608,400.213 105.371,386.62C104.995,382.494 101.339,379.446 97.222,379.831C93.097,380.206 90.057,383.854 90.432,387.979C92.668,412.54 101.702,430.054 116.558,438.631C123.317,442.533 130.993,444.461 139.433,444.461C159.863,444.461 184.764,433.161 211.923,411.197C219.498,405.071 227.098,398.239 234.663,390.797C244.214,400.192 253.787,408.554 263.238,415.731C263.231,415.757 263.22,415.782 263.213,415.809C261.658,421.614 262.456,427.677 265.461,432.882C269.468,439.822 276.94,444.134 284.961,444.134C288.893,444.134 292.778,443.091 296.197,441.117C297.809,440.186 299.258,439.082 300.543,437.846C310.948,442.077 320.708,444.206 329.6,444.206C338.086,444.206 345.786,442.272 352.498,438.397C375.616,425.05 384.112,390.848 376.422,342.091C374.945,332.724 372.899,323.002 370.336,313.018C380.264,310.246 389.706,307.157 398.557,303.753C444.628,286.037 470,261.578 470,234.884C470,217.73 459.348,201.148 439.196,186.932ZM351.82,302.419C335.623,306.235 317.814,309.32 298.583,311.465C304.685,302.15 310.617,292.517 316.333,282.616C322.266,272.34 327.832,261.981 333.018,251.625C340.572,268.943 346.886,285.997 351.82,302.419ZM164.778,195.117C172.655,181.473 180.738,168.671 188.919,156.722C203.933,155.514 219.363,154.885 235,154.885C250.358,154.885 265.507,155.491 280.253,156.654C288.396,168.557 296.44,181.303 304.282,194.885C311.791,207.89 318.696,220.975 324.94,233.985C318.442,247.687 311.223,261.466 303.342,275.117C295.523,288.66 287.501,301.372 279.382,313.246C265.226,314.31 250.413,314.884 234.999,314.884C219.317,314.884 204.256,314.29 189.877,313.19C181.495,300.999 173.395,288.183 165.717,274.884C157.887,261.322 150.71,247.63 144.244,234.012C150.464,221.049 157.325,208.026 164.778,195.117ZM136.236,216.35C129.047,199.68 123.011,183.264 118.251,167.481C134.323,163.707 151.583,160.723 169.639,158.612C163.501,167.975 157.536,177.66 151.788,187.616C146.286,197.147 141.097,206.747 136.236,216.35ZM234.639,99.481C246.02,111.535 257.578,125.353 269.036,140.862C257.844,140.219 246.475,139.883 235,139.883C223.255,139.883 211.617,140.236 200.162,140.91C211.648,125.378 223.233,111.542 234.639,99.481ZM332.941,216.317C328.05,206.662 322.823,196.999 317.272,187.384C311.552,177.476 305.615,167.836 299.508,158.514C317.571,160.594 334.849,163.538 350.94,167.282C346.187,183.114 340.146,199.585 332.941,216.317ZM378.149,102.177C376.813,104.491 374.318,105.93 371.64,105.93C370.319,105.93 369.062,105.591 367.903,104.922C366.168,103.92 364.927,102.303 364.409,100.368C363.89,98.432 364.157,96.412 365.159,94.677C366.362,92.594 368.505,91.23 370.875,90.977C371.168,90.949 371.416,90.924 371.668,90.924C372.989,90.924 374.246,91.263 375.404,91.932C377.138,92.934 378.379,94.551 378.898,96.486C379.417,98.421 379.151,100.442 378.149,102.177ZM344.061,44.591C355.504,51.197 360.226,65.45 362.086,78.085C357.995,80.013 354.496,83.148 352.17,87.177C349.165,92.382 348.366,98.446 349.922,104.251C351.478,110.056 355.201,114.907 360.405,117.912C360.813,118.148 361.229,118.369 361.65,118.578C360.271,129.418 358.021,140.898 354.964,152.842C334.374,148.02 311.955,144.466 288.49,142.312C274.576,122.586 259.952,104.582 245.087,88.875C286.181,48.893 323.724,32.849 344.061,44.591ZM91.102,96.486C91.621,94.551 92.861,92.934 94.597,91.932C95.743,91.27 96.986,90.933 98.293,90.927C98.343,90.93 98.393,90.93 98.443,90.932C101.079,90.972 103.524,92.395 104.842,94.678C105.844,96.413 106.11,98.434 105.592,100.369C105.073,102.304 103.833,103.921 102.097,104.923C100.939,105.592 99.682,105.931 98.361,105.931C95.683,105.931 93.189,104.493 91.852,102.178C90.849,100.442 90.583,98.421 91.102,96.486ZM107.491,118.971C108.207,118.652 108.913,118.306 109.595,117.912C114.8,114.907 118.523,110.056 120.079,104.251C121.635,98.445 120.836,92.382 117.831,87.177C115.333,82.85 111.488,79.546 107.003,77.67C108.885,65.058 113.622,50.928 125,44.358C145.375,32.595 183.02,48.718 224.205,88.863C209.299,104.586 194.634,122.621 180.681,142.389C157.209,144.581 134.789,148.181 114.21,153.044C111.153,141.174 108.894,129.759 107.491,118.971ZM56.897,184.941C56.897,189.077 53.533,192.441 49.397,192.441C45.261,192.441 41.897,189.077 41.897,184.941C41.897,180.805 45.261,177.441 49.397,177.441C53.533,177.441 56.897,180.805 56.897,184.941ZM15,234.884C15,221.633 25.027,210.379 35.192,202.374C39.068,205.539 44.014,207.44 49.397,207.44C61.804,207.44 71.897,197.346 71.897,184.94C71.897,183.964 71.828,183.004 71.706,182.061C81.519,178.025 92.249,174.394 103.727,171.199C109.793,191.417 117.868,212.593 127.685,233.982C117.494,255.949 109.129,277.713 102.882,298.471C47.684,282.873 15,258.374 15,234.884ZM117.393,302.235C122.33,285.908 128.641,268.905 136.171,251.647C141.321,261.919 146.844,272.193 152.728,282.384C158.465,292.321 164.441,301.999 170.594,311.371C151.368,309.196 133.567,306.082 117.393,302.235ZM235,329.884C246.214,329.884 257.308,329.573 268.221,328.97C257.07,344.077 245.822,357.578 234.734,369.415C223.343,357.269 212.048,343.669 201.117,328.936C212.243,329.563 223.56,329.884 235,329.884ZM278.454,425.383C277.453,423.648 277.186,421.627 277.705,419.692C277.896,418.98 278.186,418.311 278.562,417.699C278.575,417.681 278.59,417.666 278.603,417.649C278.657,417.574 278.701,417.495 278.752,417.418C279.379,416.495 280.204,415.713 281.2,415.138C282.341,414.479 283.633,414.13 284.936,414.13C287.614,414.13 290.108,415.568 291.445,417.883C293.513,421.464 292.281,426.06 288.7,428.128C287.542,428.796 286.285,429.135 284.964,429.135C282.284,429.135 279.79,427.698 278.454,425.383ZM361.607,344.431C368.165,386.014 362.112,415.53 345,425.41C333.649,431.963 319.09,429.027 307.268,424.387C307.853,419.695 306.975,414.784 304.434,410.384C300.427,403.444 292.955,399.131 284.935,399.131C281.002,399.131 277.117,400.175 273.699,402.149C273.036,402.532 272.399,402.946 271.786,403.386C262.981,396.664 254.055,388.849 245.136,380.079C259.692,364.588 274.005,346.903 287.637,327.566C311.742,325.408 334.714,321.767 355.819,316.763C358.257,326.272 360.203,335.524 361.607,344.431Z" style="fill:none;stroke-width:7.05px;stroke:rgb(21,134,81);"/>
    </g>
    <g transform="matrix(2.08417,0,0,2.08417,370.866,-470.828)">
        <path d="M-125.661,283.469L-132.332,283.469C-132.6,283.469 -132.793,283.41 -132.913,283.29C-133.032,283.17 -133.092,282.977 -133.092,282.709L-133.092,280.239C-133.092,279.972 -133.032,279.778 -132.913,279.659C-132.793,279.539 -132.6,279.479 -132.332,279.479L-126.653,279.479C-126.47,279.479 -126.333,279.42 -126.242,279.3C-126.15,279.18 -126.104,279.036 -126.104,278.867C-126.104,278.628 -126.15,278.452 -126.242,278.339C-126.333,278.227 -126.47,278.163 -126.653,278.149L-129.82,277.706C-130.805,277.565 -131.597,277.242 -132.195,276.735C-132.793,276.228 -133.092,275.384 -133.092,274.202L-133.092,271.985C-133.092,270.789 -132.705,269.87 -131.931,269.23C-131.157,268.589 -130.087,268.269 -128.722,268.269L-122.811,268.269C-122.544,268.269 -122.35,268.329 -122.23,268.449C-122.111,268.568 -122.051,268.762 -122.051,269.029L-122.051,271.541C-122.051,271.809 -122.111,272.002 -122.23,272.122C-122.35,272.242 -122.544,272.301 -122.811,272.301L-127.73,272.301C-127.913,272.301 -128.054,272.361 -128.152,272.481C-128.251,272.601 -128.3,272.752 -128.3,272.935C-128.3,273.118 -128.251,273.273 -128.152,273.399C-128.054,273.526 -127.913,273.596 -127.73,273.61L-124.584,274.033C-123.599,274.173 -122.804,274.497 -122.199,275.004C-121.594,275.51 -121.291,276.355 -121.291,277.537L-121.291,279.754C-121.291,280.95 -121.681,281.869 -122.463,282.509C-123.244,283.149 -124.31,283.469 -125.661,283.469Z" style="fill:rgb(21,134,81);fill-rule:nonzero;"/>
    </g>
</svg>
