<svg width="200" height="176" viewBox="0 0 200 176" version="1.1" xmlns="http://www.w3.org/2000/svg" xmlns:xlink="http://www.w3.org/1999/xlink">
<title>logo</title>
<desc>Created using Figma</desc>
<g id="Canvas" transform="translate(81 145)">
<g id="logo">
<g id="star">
<use xlink:href="#path0_fill" transform="translate(-80.2784 -25.5771)" fill="#79AEC9"/>
</g>
<g id="star">
<use xlink:href="#path1_fill" transform="translate(104.381 -48.7271)" fill="#77A4BD"/>
</g>
<g id="comet">
<g id="Group">
<g id="Vector">
<use xlink:href="#path2_fill" transform="matrix(-0.514864 -0.857272 0.85594 -0.517076 98.5959 -19.7361)" fill="#79AEC9"/>
</g>
</g>
<g id="Group">
<g id="Vector">
<use xlink:href="#path3_fill" transform="matrix(-0.514864 -0.857272 0.85594 -0.517076 87.1849 1.09196)" fill="#79AEC9"/>
</g>
</g>
</g>
<g id="comet">
<g id="Group">
<g id="Vector">
<use xlink:href="#path4_fill" transform="matrix(0.982862 -0.184345 0.183307 0.983056 -43.9156 7.04503)" fill="#79AEC9"/>
</g>
</g>
<g id="Group">
<g id="Vector">
<use xlink:href="#path5_fill" transform="matrix(0.982862 -0.184345 0.183307 0.983056 -59.3811 -10.9606)" fill="#79AEC9"/>
</g>
</g>
</g>
<g id="comet">
<g id="Group">
<g id="Vector">
<use xlink:href="#path6_fill" transform="matrix(-0.39429 0.918986 -0.918148 -0.396239 -2.96155 -140.554)" fill="#81B3CC"/>
</g>
</g>
<g id="Group">
<g id="Vector">
<use xlink:href="#path7_fill" transform="matrix(-0.39429 0.918986 -0.918148 -0.396239 20.5643 -143.396)" fill="#81B3CC"/>
</g>
</g>
</g>
<g id="star">
<mask id="mask0_outline_ins">
<use xlink:href="#path8_fill" fill="white" transform="translate(-67.9677 8.49658)"/>
</mask>
<g mask="url(#mask0_outline_ins)">
<use xlink:href="#path9_stroke_2x" transform="translate(-67.9677 8.49658)" fill="#77A4BD"/>
</g>
</g>
<g id="star">
<mask id="mask1_outline_ins">
<use xlink:href="#path8_fill" fill="white" transform="translate(78.221 16.2132)"/>
</mask>
<g mask="url(#mask1_outline_ins)">
<use xlink:href="#path9_stroke_2x" transform="translate(78.221 16.2132)" fill="#77A4BD"/>
</g>
</g>
<g id="star">
<mask id="mask2_outline_ins">
<use xlink:href="#path10_fill" fill="white" transform="translate(111.306 -78.0504)"/>
</mask>
<g mask="url(#mask2_outline_ins)">
<use xlink:href="#path11_stroke_2x" transform="translate(111.306 -78.0504)" fill="#77A4BD"/>
</g>
</g>
<g id="Group">
<g id="inner outlines">
<use xlink:href="#path12_fill" transform="translate(48.3376 -93.1012)" fill="#56AB33"/>
</g>
<g id="inner outlines">
<use xlink:href="#path13_fill" transform="translate(-54.2174 -48.9336)" fill="#56AB33"/>
<use xlink:href="#path14_fill" transform="translate(-54.2174 -48.9336)" fill="#56AB33"/>
<use xlink:href="#path15_fill" transform="translate(-54.2174 -48.9336)" fill="#56AB33"/>
</g>
<g id="inner outlines">
<use xlink:href="#path16_fill" transform="translate(-38.1268 -128.472)" fill="#56AB33"/>
<use xlink:href="#path17_fill" transform="translate(-38.1268 -128.472)" fill="#56AB33"/>
<use xlink:href="#path18_fill" transform="translate(-38.1268 -128.472)" fill="#56AB33"/>
</g>
</g>
<g id="outer outlines">
<use xlink:href="#path19_fill" transform="matrix(0.948714 -0.316136 0.314476 0.949265 -88 -102.191)" fill="#764ABC"/>
<use xlink:href="#path20_fill" transform="matrix(0.948714 -0.316136 0.314476 0.949265 -88 -102.191)" fill="#764ABC"/>
<use xlink:href="#path21_fill" transform="matrix(0.948714 -0.316136 0.314476 0.949265 -88 -102.191)" fill="#764ABC"/>
</g>
<g id="outer outlines">
<use xlink:href="#path19_fill" transform="matrix(0.948714 -0.316136 0.314476 0.949265 -88 -102.191)" fill="#764ABC"/>
<use xlink:href="#path20_fill" transform="matrix(0.948714 -0.316136 0.314476 0.949265 -88 -102.191)" fill="#764ABC"/>
<use xlink:href="#path21_fill" transform="matrix(0.948714 -0.316136 0.314476 0.949265 -88 -102.191)" fill="#764ABC"/>
</g>
<g id="outer outlines">
<use xlink:href="#path22_fill" transform="matrix(-0.139048 0.990286 -0.990173 -0.139847 106.236 -131.716)" fill="#764ABC"/>
<use xlink:href="#path23_fill" transform="matrix(-0.139048 0.990286 -0.990173 -0.139847 106.236 -131.716)" fill="#764ABC"/>
<use xlink:href="#path24_fill" transform="matrix(-0.139048 0.990286 -0.990173 -0.139847 106.236 -131.716)" fill="#764ABC"/>
</g>
<g id="outer outlines">
<use xlink:href="#path25_fill" transform="matrix(-0.597399 -0.801944 0.800268 -0.599643 8.80212 59)" fill="#764ABC"/>
<use xlink:href="#path26_fill" transform="matrix(-0.597399 -0.801944 0.800268 -0.599643 8.80212 59)" fill="#764ABC"/>
<use xlink:href="#path27_fill" transform="matrix(-0.597399 -0.801944 0.800268 -0.599643 8.80212 59)" fill="#764ABC"/>
</g>
<g id="star">
<mask id="mask3_outline_ins">
<use xlink:href="#path8_fill" fill="white" transform="translate(-44.8853 -141.978)"/>
</mask>
<g mask="url(#mask3_outline_ins)">
<use xlink:href="#path9_stroke_2x" transform="translate(-44.8853 -141.978)" fill="#77A4BD"/>
</g>
</g>
<g id="Ellipse">
<mask id="mask4_outline_ins">
<use xlink:href="#path28_fill" fill="white" transform="translate(-31 -108)"/>
</mask>
<g mask="url(#mask4_outline_ins)">
<use xlink:href="#path29_stroke_2x" transform="translate(-31 -108)" fill="#008755"/>
</g>
</g>
<g id="S">
<use xlink:href="#path30_fill" transform="translate(5 -78)" fill="#008755"/>
</g>
</g>
</g>
<defs>
<path id="path0_fill" d="M 2.31945 4.62999C 1.0543 4.62999 -6.87325e-06 3.59467 -6.87325e-06 2.315C -6.87325e-06 1.03532 1.00488 9.89568e-07 2.27463 9.89568e-07L 2.31945 9.89568e-07C 3.58863 9.89568e-07 4.61648 1.03532 4.61648 2.315C 4.61648 3.59467 3.58863 4.62999 2.31945 4.62999Z"/>
<path id="path1_fill" d="M 1.5463 3.08666C 0.702863 3.08666 4.8627e-06 2.39645 4.8627e-06 1.54333C 4.8627e-06 0.6906 0.669921 -9.89568e-07 1.51642 -9.89568e-07L 1.5463 -9.89568e-07C 2.3928 -9.89568e-07 3.07765 0.6906 3.07765 1.54333C 3.07765 2.39645 2.3928 3.08666 1.5463 3.08666Z"/>
<path id="path2_fill" d="M 4.47295 8.78856C 2.00658 8.78856 -5.91762e-07 6.81747 -5.91762e-07 4.39428C -5.91762e-07 1.97109 2.00621 2.77284e-06 4.47295 2.77284e-06C 6.93931 2.77284e-06 8.94552 1.97109 8.94552 4.39428C 8.94552 6.81747 6.93931 8.78856 4.47295 8.78856ZM 4.47295 2.92952C 3.65033 2.92952 2.98209 3.58752 2.98209 4.39428C 2.98209 5.20103 3.65033 5.85904 4.47295 5.85904C 5.29557 5.85904 5.9638 5.20103 5.9638 4.39428C 5.9638 3.58752 5.29519 2.92952 4.47295 2.92952Z"/>
<path id="path3_fill" d="M 14.0341 24.5882C 13.7093 24.5882 13.3819 24.4823 13.1082 24.2709C 12.7006 23.9503 3.08685 16.3034 0.0309273 1.76131C -0.135014 0.965916 0.383319 0.193595 1.1899 0.0279942C 1.9894 -0.126615 2.78405 0.373848 2.95149 1.16631C 5.79075 14.6814 14.8713 21.9078 14.963 21.9767C 15.6081 22.4801 15.7144 23.4015 15.2031 24.0364C 14.9078 24.3999 14.4737 24.5882 14.0341 24.5882Z"/>
<path id="path4_fill" d="M 4.4638 8.80654C 2.00248 8.80654 -5.90552e-07 6.83141 -5.90552e-07 4.40327C -5.90552e-07 1.97512 2.00211 2.77851e-06 4.4638 2.77851e-06C 6.92513 2.77851e-06 8.92723 1.97512 8.92723 4.40327C 8.92723 6.83141 6.92513 8.80654 4.4638 8.80654ZM 4.4638 2.93551C 3.64286 2.93551 2.97599 3.59486 2.97599 4.40327C 2.97599 5.21167 3.64286 5.87103 4.4638 5.87103C 5.28474 5.87103 5.95161 5.21167 5.95161 4.40327C 5.95161 3.59486 5.28437 2.93551 4.4638 2.93551Z"/>
<path id="path5_fill" d="M 14.0054 24.6385C 13.6813 24.6385 13.3545 24.5324 13.0814 24.3205C 12.6746 23.9993 3.08054 16.3367 0.0308641 1.76491C -0.134738 0.967891 0.382535 0.193991 1.18747 0.0280514C 1.98534 -0.126874 2.77836 0.374613 2.94545 1.1687C 5.77892 14.7115 14.8409 21.9526 14.9324 22.0216C 15.5762 22.5261 15.6823 23.4494 15.1721 24.0856C 14.8773 24.4498 14.4442 24.6385 14.0054 24.6385Z"/>
<path id="path6_fill" d="M 4.47438 8.78573C 2.00722 8.78573 -5.91951e-07 6.81527 -5.91951e-07 4.39286C -5.91951e-07 1.97045 2.00685 2.77195e-06 4.47438 2.77195e-06C 6.94154 2.77195e-06 8.94839 1.97045 8.94839 4.39286C 8.94839 6.81527 6.94154 8.78573 4.47438 8.78573ZM 4.47438 2.92858C 3.6515 2.92858 2.98305 3.58637 2.98305 4.39286C 2.98305 5.19936 3.6515 5.85716 4.47438 5.85716C 5.29726 5.85716 5.96572 5.19936 5.96572 4.39286C 5.96572 3.58637 5.29689 2.92858 4.47438 2.92858Z"/>
<path id="path7_fill" d="M 14.0386 24.5803C 13.7137 24.5803 13.3862 24.4744 13.1124 24.2631C 12.7047 23.9426 3.08784 16.2981 0.0309372 1.76074C -0.135057 0.965605 0.383442 0.193532 1.19028 0.0279852C 1.99004 -0.126574 2.78495 0.373728 2.95243 1.16594C 5.79261 14.6767 14.876 21.9007 14.9678 21.9696C 15.6131 22.4728 15.7194 23.394 15.208 24.0287C 14.9126 24.392 14.4784 24.5803 14.0386 24.5803Z"/>
<path id="path8_fill" d="M 3.8667 7.71664C 1.75811 7.71664 -7.89021e-07 5.99015 -7.89021e-07 3.85833C -7.89021e-07 1.72457 1.67576 1.29586e-05 3.79105 1.29586e-05L 3.86574 1.29586e-05C 5.98104 1.29586e-05 7.69414 1.72457 7.69414 3.85833C 7.6951 5.99015 5.98295 7.71664 3.8667 7.71664Z"/>
<path id="path9_stroke_2x" d="M 7.69414 3.85833L 4.69414 3.85833L 4.69414 3.85967L 7.69414 3.85833ZM 3.8667 4.71664C 3.39474 4.71664 3 4.31314 3 3.85833L -3 3.85833C -3 7.66717 0.121489 10.7166 3.8667 10.7166L 3.8667 4.71664ZM 3 3.85833C 3 3.3217 3.39171 3.00001 3.79105 3.00001L 3.79105 -2.99999C -0.0401876 -2.99999 -3 0.127436 -3 3.85833L 3 3.85833ZM 3.79105 3.00001L 3.86574 3.00001L 3.86574 -2.99999L 3.79105 -2.99999L 3.79105 3.00001ZM 3.86574 3.00001C 4.30319 3.00001 4.69414 3.36035 4.69414 3.85833L 10.6941 3.85833C 10.6941 0.0887884 7.65889 -2.99999 3.86574 -2.99999L 3.86574 3.00001ZM 4.69414 3.85967C 4.69437 4.35589 4.30389 4.71664 3.8667 4.71664L 3.8667 10.7166C 7.66201 10.7166 10.6958 7.62442 10.6941 3.85698L 4.69414 3.85967Z"/>
<path id="path10_fill" d="M 3.86575 7.71666C 1.75716 7.71666 1.21568e-05 5.99112 1.21568e-05 3.85833C 1.21568e-05 1.7265 1.6748 -2.47392e-06 3.79105 -2.47392e-06L 3.86575 -2.47392e-06C 5.98199 -2.47392e-06 7.69413 1.7265 7.69413 3.85833C 7.69413 5.99112 5.98199 7.71666 3.86575 7.71666Z"/>
<path id="path11_stroke_2x" d="M 3.86575 4.71666C 3.39428 4.71666 3.00001 4.31461 3.00001 3.85833L -2.99999 3.85833C -2.99999 7.66763 0.12003 10.7167 3.86575 10.7167L 3.86575 4.71666ZM 3.00001 3.85833C 3.00001 3.32211 3.39224 3 3.79105 3L 3.79105 -3C -0.0426369 -3 -2.99999 0.130885 -2.99999 3.85833L 3.00001 3.85833ZM 3.79105 3L 3.86575 3L 3.86575 -3L 3.79105 -3L 3.79105 3ZM 3.86575 3C 4.30266 3 4.69413 3.36078 4.69413 3.85833L 10.6941 3.85833C 10.6941 0.0922179 7.66133 -3 3.86575 -3L 3.86575 3ZM 4.69413 3.85833C 4.69413 4.35635 4.30314 4.71666 3.86575 4.71666L 3.86575 10.7167C 7.66085 10.7167 10.6941 7.62589 10.6941 3.85833L 4.69413 3.85833Z"/>
<path id="path12_fill" d="M 1.49988 105.072C 0.941063 105.072 0.405835 104.761 0.148523 104.22C -0.211039 103.47 0.105077 102.57 0.850419 102.211C 2.60553 101.365 4.34566 100.433 6.02174 99.4451C 6.73525 99.0219 7.65102 99.2655 8.072 99.9834C 8.48999 100.697 8.25067 101.621 7.53679 102.044C 5.79066 103.073 3.97712 104.043 2.14635 104.925C 1.93548 105.025 1.71599 105.072 1.49988 105.072ZM 11.8152 98.9929C 11.3444 98.9929 10.8792 98.7693 10.5901 98.3522C 10.1133 97.6726 10.2739 96.7352 10.9496 96.2559C 26.2692 85.4107 36.813 68.5923 39.8809 50.1155C 40.0153 49.2922 40.7817 48.7365 41.6038 48.8747C 42.4199 49.0128 42.9694 49.7891 42.8349 50.6091C 39.6385 69.8769 28.6442 87.4098 12.6755 98.7162C 12.4118 98.9018 12.1137 98.9929 11.8152 98.9929ZM 42.0948 45.8937C 42.054 45.8937 42.0128 45.8937 41.972 45.8907C 41.1476 45.8229 40.533 45.0941 40.6004 44.2651C 40.7614 42.3191 40.8431 40.3377 40.8431 38.3796C 40.8401 29.5764 39.252 20.9893 36.1223 12.8563C 35.8238 12.0815 36.2074 11.2099 36.9793 10.9103C 37.7456 10.6072 38.6172 10.9957 38.9153 11.7716C 42.1795 20.2514 43.8349 29.2033 43.8379 38.38C 43.8379 40.4186 43.7529 42.484 43.5862 44.5124C 43.5218 45.3 42.8667 45.8937 42.0948 45.8937ZM 35.1309 8.30352C 34.5755 8.30352 34.0432 7.99218 33.7826 7.45683C 32.9342 5.69905 31.9986 3.95558 31.0042 2.27536C 30.5798 1.55968 30.8139 0.636177 31.5248 0.211886C 32.2383 -0.214287 33.1567 0.0236454 33.5781 0.735189C 34.6133 2.48882 35.5901 4.30721 36.4763 6.13991C 36.8388 6.88797 36.5291 7.78926 35.7856 8.15218C 35.5755 8.25534 35.3504 8.30352 35.1309 8.30352Z"/>
<path id="path13_fill" d="M 48.1895 63.6391C 48.3565 63.6978 48.5288 63.7272 48.6955 63.7272C 49.3098 63.7272 49.8862 63.3451 50.1049 62.7333C 50.3854 61.9487 49.9821 61.0869 49.2041 60.805C 47.373 60.1465 45.5482 59.3969 43.7699 58.5826C 43.0156 58.2415 42.129 58.5709 41.787 59.3265C 41.4451 60.0821 41.7754 60.9759 42.5271 61.3226C 44.3785 62.1693 46.2827 62.9513 48.1895 63.6391Z"/>
<path id="path14_fill" d="M 37.0787 58.5292C 37.3098 58.6647 37.5611 58.7234 37.8098 58.7234C 38.3334 58.7234 38.842 58.4471 39.1173 57.9592C 39.5237 57.2329 39.2667 56.3158 38.5472 55.9074C 22.2273 46.6765 10.0456 31.0128 5.12633 12.9271C 4.90685 12.1271 4.08211 11.6656 3.28658 11.8745C 2.48805 12.0921 2.01725 12.9211 2.23635 13.7204C 7.36648 32.5763 20.0658 48.9098 37.0787 58.5292Z"/>
<path id="path15_fill" d="M 0.870393 7.73513C 1.00523 8.45872 1.63371 8.96433 2.3416 8.96433C 2.43262 8.96433 2.52625 8.95831 2.61652 8.94061C 3.42965 8.78776 3.96749 8.0028 3.81543 7.18547C 3.46486 5.27183 3.18395 3.30774 2.98806 1.35006C 2.90604 0.524067 2.20115 -0.0496829 1.34719 0.00340052C 0.525064 0.088861 -0.0742055 0.827137 0.007445 1.65577C 0.21232 3.6959 0.504838 5.73905 0.870393 7.73513Z"/>
<path id="path16_fill" d="M 0.544327 28.9051C 0.822239 29.137 1.16157 29.2503 1.49492 29.2503C 1.92789 29.2503 2.3545 29.0636 2.65001 28.7041C 3.89574 27.1899 5.21451 25.7156 6.56886 24.3238C 7.14828 23.7297 7.13667 22.7772 6.54564 22.1952C 5.95761 21.6142 5.01001 21.6259 4.42797 22.2185C 3.01556 23.6709 1.64099 25.2085 0.342448 26.7871C -0.183786 27.4278 -0.0935208 28.3758 0.544327 28.9051Z"/>
<path id="path17_fill" d="M 8.72511 20.1283C 9.02287 20.4709 9.43862 20.6471 9.85661 20.6471C 10.2046 20.6471 10.5555 20.5262 10.8398 20.2796C 24.9807 7.95299 43.6112 1.778 62.3703 3.21389C 63.1804 3.26509 63.9145 2.65519 63.9759 1.82619C 64.04 0.997185 63.4201 0.275476 62.5954 0.212228C 43.0438 -1.28126 23.6177 5.15576 8.87718 18.0042C 8.25094 18.5497 8.1839 19.5007 8.72511 20.1283Z"/>
<path id="path18_fill" d="M 73.9313 5.08536C 74.0542 5.11472 74.1744 5.12941 74.2942 5.12941C 74.9669 5.12941 75.5778 4.67199 75.7475 3.98717C 75.946 3.18038 75.4576 2.36305 74.6534 2.16314C 72.6942 1.67371 70.6788 1.26072 68.6667 0.935819C 67.8304 0.792004 67.0787 1.36237 66.9498 2.18234C 66.8183 3.00381 67.3742 3.77559 68.1903 3.90774C 70.1203 4.21946 72.0533 4.61627 73.9313 5.08536Z"/>
<path id="path19_fill" d="M 1.28789 66.3795C 1.35795 66.3897 1.42801 66.3942 1.49845 66.3942C 2.23277 66.3942 2.87342 65.8518 2.98207 65.101C 3.25707 63.1582 3.60512 61.2007 4.01761 59.2876C 4.18995 58.475 3.67818 57.6741 2.8708 57.4976C 2.06342 57.3275 1.26466 57.8389 1.08895 58.65C 0.661847 60.6354 0.298808 62.6632 0.0151953 64.6779C -0.101696 65.5007 0.468525 66.2621 1.28789 66.3795Z"/>
<path id="path20_fill" d="M 3.60474 54.5822C 3.74486 54.6233 3.88836 54.6424 4.02585 54.6424C 4.6755 54.6424 5.27232 54.2164 5.46489 53.5608C 10.7194 35.5334 22.1085 19.6672 37.5352 8.88277C 38.2141 8.40666 38.3808 7.46951 37.9098 6.78753C 37.4359 6.10554 36.4996 5.93656 35.8238 6.41116C 19.8385 17.5882 8.03389 34.0317 2.58943 52.7147C 2.35528 53.5126 2.81198 54.3485 3.60474 54.5822Z"/>
<path id="path21_fill" d="M 40.423 5.16048C 40.701 5.63207 41.2012 5.89516 41.7103 5.89516C 41.9707 5.89516 42.2341 5.82779 42.4772 5.68364C 44.1448 4.68739 45.8794 3.73254 47.6321 2.8477C 48.372 2.47396 48.6706 1.57068 48.299 0.826972C 47.9273 0.0862782 47.0323 -0.210301 46.2859 0.158164C 44.4693 1.075 42.6728 2.0641 40.9441 3.09723C 40.2331 3.52177 39.9989 4.44501 40.423 5.16048Z"/>
<path id="path22_fill" d="M 1.29121 66.2088C 1.36145 66.219 1.43169 66.2235 1.50231 66.2235C 2.23852 66.2235 2.88083 65.6825 2.98975 64.9336C 3.26546 62.9958 3.61441 61.0433 4.02796 59.1351C 4.20075 58.3246 3.68765 57.5258 2.8782 57.3497C 2.06874 57.18 1.26792 57.6902 1.09176 58.4992C 0.663552 60.4795 0.299578 62.5021 0.0152345 64.5116C -0.101958 65.3323 0.469732 66.0917 1.29121 66.2088Z"/>
<path id="path23_fill" d="M 3.61403 54.4419C 3.75451 54.4828 3.89838 54.5019 4.03623 54.5019C 4.68755 54.5019 5.28591 54.077 5.47898 53.423C 10.747 35.4421 22.1654 19.6167 37.6319 8.85993C 38.3125 8.38505 38.4797 7.4503 38.0075 6.77007C 37.5324 6.08985 36.5937 5.92129 35.9161 6.39467C 19.8896 17.543 8.05459 33.9442 2.59611 52.5791C 2.36135 53.375 2.81923 54.2088 3.61403 54.4419Z"/>
<path id="path24_fill" d="M 40.5272 5.14721C 40.8059 5.61759 41.3073 5.88 41.8178 5.88C 42.0788 5.88 42.3429 5.8128 42.5867 5.66902C 44.2586 4.67533 45.9977 3.72294 47.7548 2.84037C 48.4967 2.4676 48.796 1.56664 48.4234 0.824846C 48.0508 0.0860563 47.1534 -0.20976 46.4052 0.157758C 44.5838 1.07223 42.7828 2.05879 41.0497 3.08927C 40.3367 3.51272 40.102 4.43358 40.5272 5.14721Z"/>
<path id="path25_fill" d="M 1.28993 66.2745C 1.36011 66.2846 1.43028 66.2892 1.50082 66.2892C 2.23631 66.2892 2.87798 65.7477 2.9868 64.998C 3.26223 63.0583 3.61084 61.1039 4.02399 59.1938C 4.1966 58.3825 3.68401 57.5829 2.87535 57.4066C 2.0667 57.2368 1.26667 57.7474 1.09068 58.5572C 0.662897 60.5394 0.299282 62.5641 0.0152195 64.5756C -0.101858 65.3971 0.469269 66.1573 1.28993 66.2745Z"/>
<path id="path26_fill" d="M 3.61046 54.4959C 3.75081 54.5368 3.89453 54.556 4.03224 54.556C 4.68292 54.556 5.28069 54.1306 5.47357 53.476C 10.7364 35.4772 22.1436 19.6361 37.5947 8.86872C 38.2747 8.39336 38.4417 7.45769 37.97 6.77679C 37.4953 6.09589 36.5576 5.92716 35.8806 6.40101C 19.8699 17.5604 8.04664 33.9779 2.59354 52.6313C 2.35901 53.4279 2.81644 54.2625 3.61046 54.4959Z"/>
<path id="path27_fill" d="M 40.4871 5.15232C 40.7656 5.62316 41.2665 5.88583 41.7765 5.88583C 42.0373 5.88583 42.3011 5.81857 42.5446 5.67464C 44.2149 4.67997 45.9523 3.72663 47.7077 2.84319C 48.4488 2.47005 48.7478 1.56819 48.3756 0.825664C 48.0033 0.0861417 47.1069 -0.209968 46.3594 0.157914C 44.5398 1.0733 42.7405 2.06083 41.0091 3.09233C 40.2969 3.5162 40.0624 4.43797 40.4871 5.15232Z"/>
<path id="path28_fill" d="M 100 50C 100 77.6142 77.6142 100 50 100C 22.3858 100 0 77.6142 0 50C 0 22.3858 22.3858 0 50 0C 77.6142 0 100 22.3858 100 50Z"/>
<path id="path29_stroke_2x" d="M 97 50C 97 75.9574 75.9574 97 50 97L 50 103C 79.2711 103 103 79.2711 103 50L 97 50ZM 50 97C 24.0426 97 3 75.9574 3 50L -3 50C -3 79.2711 20.7289 103 50 103L 50 97ZM 3 50C 3 24.0426 24.0426 3 50 3L 50 -3C 20.7289 -3 -3 20.7289 -3 50L 3 50ZM 50 3C 75.9574 3 97 24.0426 97 50L 103 50C 103 20.7289 79.2711 -3 50 -3L 50 3Z"/>
<path id="path30_fill" d="M 19.5556 40L 2 40C 1.2963 40 0.777778 39.8519 0.444444 39.5556C 0.148148 39.2222 0 38.7037 0 38L 0 31.5C 0 30.7963 0.148148 30.2963 0.444444 30C 0.777778 29.6667 1.2963 29.5 2 29.5L 16.9444 29.5C 17.4259 29.5 17.7778 29.3519 18 29.0556C 18.2593 28.7222 18.3889 28.3333 18.3889 27.8889C 18.3889 27.2593 18.2593 26.7963 18 26.5C 17.7778 26.2037 17.4259 26.037 16.9444 26L 8.61111 24.8333C 6.01852 24.463 3.92593 23.6111 2.33333 22.2778C 0.777778 20.9444 0 18.7222 0 15.6111L 0 9.77778C 0 6.62963 1.01852 4.22222 3.05556 2.55556C 5.09259 0.851852 7.90741 0 11.5 0L 27.0556 0C 27.7593 0 28.2593 0.166667 28.5556 0.5C 28.8889 0.796296 29.0556 1.2963 29.0556 2L 29.0556 8.61111C 29.0556 9.31481 28.8889 9.83333 28.5556 10.1667C 28.2593 10.463 27.7593 10.6111 27.0556 10.6111L 14.1111 10.6111C 13.6296 10.6111 13.2593 10.7778 13 11.1111C 12.7407 11.4074 12.6111 11.7963 12.6111 12.2778C 12.6111 12.7593 12.7407 13.1667 13 13.5C 13.2593 13.8333 13.6296 14.0185 14.1111 14.0556L 22.3889 15.1667C 24.9815 15.537 27.0741 16.3889 28.6667 17.7222C 30.2593 19.0556 31.0556 21.2778 31.0556 24.3889L 31.0556 30.2222C 31.0556 33.3704 30.0185 35.7963 27.9444 37.5C 25.9074 39.1667 23.1111 40 19.5556 40Z"/>
</defs>
</svg>
