<svg width="267" height="272" viewBox="0 0 267 272" version="1.1" xmlns="http://www.w3.org/2000/svg" xmlns:xlink="http://www.w3.org/1999/xlink">
<title>logo</title>
<desc>Created using Figma</desc>
<g id="Canvas" transform="translate(110 194)">
<g id="logo">
<g id="star">
<use xlink:href="#path0_fill" transform="translate(-110 -40)" fill="#79AEC9"/>
</g>
<g id="star">
<mask id="mask0_outline_ins">
<use xlink:href="#path1_fill" fill="white" transform="translate(101.655 -165.495)"/>
</mask>
<g mask="url(#mask0_outline_ins)">
<use xlink:href="#path2_stroke_2x" transform="translate(101.655 -165.495)" fill="#77A4BD"/>
</g>
</g>
<g id="star">
<use xlink:href="#path3_fill" transform="translate(-80.4295 -151.297)" fill="#77A4BD"/>
</g>
<g id="comet">
<g id="Group">
<g id="Vector">
<use xlink:href="#path4_fill" transform="matrix(0.2689 -0.963168 0.963168 0.2689 56.5595 61.6232)" fill="#79AEC9"/>
</g>
</g>
<g id="Group">
<g id="Vector">
<use xlink:href="#path5_fill" transform="matrix(0.2689 -0.963168 0.963168 0.2689 26.7502 69.3609)" fill="#79AEC9"/>
</g>
</g>
</g>
<g id="comet">
<g id="Group">
<g id="Vector">
<use xlink:href="#path4_fill" transform="matrix(-0.5 0.866025 -0.866025 -0.5 -3.84479 -177.69)" fill="#81B3CC"/>
</g>
</g>
<g id="Group">
<g id="Vector">
<use xlink:href="#path5_fill" transform="matrix(-0.5 0.866025 -0.866025 -0.5 26.9523 -177.771)" fill="#81B3CC"/>
</g>
</g>
</g>
<g id="star">
<mask id="mask1_outline_ins">
<use xlink:href="#path6_fill" fill="white" transform="translate(-96 28.1561)"/>
</mask>
<g mask="url(#mask1_outline_ins)">
<use xlink:href="#path7_stroke_2x" transform="translate(-96 28.1561)" fill="#77A4BD"/>
</g>
</g>
<g id="star">
<mask id="mask2_outline_ins">
<use xlink:href="#path1_fill" fill="white" transform="translate(147 -79)"/>
</mask>
<g mask="url(#mask2_outline_ins)">
<use xlink:href="#path2_stroke_2x" transform="translate(147 -79)" fill="#77A4BD"/>
</g>
</g>
<g id="inner outlines">
<use xlink:href="#path8_fill" transform="translate(-78.1289 -149.341)" fill="#56AB33"/>
</g>
<g id="outer outlines">
<use xlink:href="#path9_fill" transform="translate(-93.0732 -162.487)" fill="#008755"/>
</g>
<g id="circle">
<mask id="mask3_outline_ins">
<use xlink:href="#path10_fill" fill="white" transform="translate(-40 -113.3)"/>
</mask>
<g mask="url(#mask3_outline_ins)">
<use xlink:href="#path11_stroke_2x" transform="translate(-40 -113.3)" fill="#70C14F"/>
</g>
</g>
<g id="circle">
<mask id="mask4_outline_ins">
<use xlink:href="#path12_fill" fill="white" transform="translate(-56 -129.3)"/>
</mask>
<g mask="url(#mask4_outline_ins)">
<use xlink:href="#path13_stroke_2x" transform="translate(-56 -129.3)" fill="#70C14F"/>
</g>
</g>
<g id="S">
<use xlink:href="#path14_fill" transform="translate(3.264 -77.08)" fill="#008755"/>
</g>
</g>
</g>
<defs>
<path id="path0_fill" d="M 3.01457 6C 1.37026 6 -8.93309e-06 4.65833 -8.93309e-06 3C -8.93309e-06 1.34167 1.30604 1.28238e-06 2.95632 1.28238e-06L 3.01457 1.28238e-06C 4.6641 1.28238e-06 5.99999 1.34167 5.99999 3C 5.99999 4.65833 4.6641 6 3.01457 6Z"/>
<path id="path1_fill" d="M 5.02427 10C 2.28376 10 1.58e-05 7.76388 1.58e-05 5C 1.58e-05 2.23737 2.17672 -3.20595e-06 4.92719 -3.20595e-06L 5.02427 -3.20595e-06C 7.77474 -3.20595e-06 9.99998 2.23737 9.99998 5C 9.99998 7.76388 7.77474 10 5.02427 10Z"/>
<path id="path2_stroke_2x" d="M 5.02427 7C 3.91259 7 3.00002 6.07914 3.00002 5L -2.99998 5C -2.99998 9.44862 0.654929 13 5.02427 13L 5.02427 7ZM 3.00002 5C 3.00002 3.84132 3.88598 3 4.92719 3L 4.92719 -3C 0.467462 -3 -2.99998 0.63341 -2.99998 5L 3.00002 5ZM 4.92719 3L 5.02427 3L 5.02427 -3L 4.92719 -3L 4.92719 3ZM 5.02427 3C 6.10363 3 6.99998 3.87994 6.99998 5L 13 5C 13 0.594796 9.44584 -3 5.02427 -3L 5.02427 3ZM 6.99998 5C 6.99998 6.12082 6.10412 7 5.02427 7L 5.02427 13C 9.44535 13 13 9.40694 13 5L 6.99998 5Z"/>
<path id="path3_fill" d="M 4.0108 8C 1.82309 8 -7.57988e-07 6.21011 -7.57988e-07 4C -7.57988e-07 1.7889 1.73765 6.71723e-07 3.9333 6.71723e-07L 4.0108 6.71723e-07C 6.20546 6.71723e-07 7.98285 1.7889 7.98285 4C 7.98285 6.21111 6.20546 8 4.0108 8Z"/>
<path id="path4_fill" d="M 5.80098 11.4135C 2.60234 11.4135 -7.67458e-07 8.85369 -7.67458e-07 5.70674C -7.67458e-07 2.5598 2.60186 3.60103e-06 5.80098 3.60103e-06C 8.99962 3.60103e-06 11.6015 2.5598 11.6015 5.70674C 11.6015 8.85369 8.99962 11.4135 5.80098 11.4135ZM 5.80098 3.8045C 4.73412 3.8045 3.86748 4.65903 3.86748 5.70674C 3.86748 6.75446 4.73412 7.609 5.80098 7.609C 6.86784 7.609 7.73448 6.75446 7.73448 5.70674C 7.73448 4.65903 6.86736 3.8045 5.80098 3.8045Z"/>
<path id="path5_fill" d="M 18.2009 31.9321C 17.7797 31.9321 17.355 31.7946 17.0001 31.5201C 16.4715 31.1037 4.00335 21.1728 0.0401097 2.28737C -0.1751 1.25441 0.497128 0.251417 1.54319 0.0363554C 2.58006 -0.164432 3.61065 0.485508 3.8278 1.51466C 7.51005 19.0665 19.2866 28.4511 19.4056 28.5406C 20.2422 29.1943 20.3801 30.391 19.717 31.2155C 19.334 31.6875 18.7711 31.9321 18.2009 31.9321Z"/>
<path id="path6_fill" d="M 5.02551 9.99998C 2.285 9.99998 -1.02548e-06 7.76263 -1.02548e-06 5C -1.02548e-06 2.23487 2.17797 1.67931e-05 4.92719 1.67931e-05L 5.02427 1.67931e-05C 7.77349 1.67931e-05 10 2.23487 10 5C 10.0012 7.76263 7.77598 9.99998 5.02551 9.99998Z"/>
<path id="path7_stroke_2x" d="M 10 5L 7 5L 7 5.00135L 10 5ZM 5.02551 6.99998C 3.91333 6.99998 3 6.07739 3 5L -3 5C -3 9.44787 0.656676 13 5.02551 13L 5.02551 6.99998ZM 3 5C 3 3.84034 3.88574 3.00002 4.92719 3.00002L 4.92719 -2.99998C 0.470201 -2.99998 -3 0.629391 -3 5L 3 5ZM 4.92719 3.00002L 5.02427 3.00002L 5.02427 -2.99998L 4.92719 -2.99998L 4.92719 3.00002ZM 5.02427 3.00002C 6.10388 3.00002 7 3.87893 7 5L 13 5C 13 0.590798 9.4431 -2.99998 5.02427 -2.99998L 5.02427 3.00002ZM 7 5.00135C 7.0005 6.12007 6.10516 6.99998 5.02551 6.99998L 5.02551 13C 9.4468 13 13.002 9.40519 13 4.99865L 7 5.00135Z"/>
<path id="path8_fill" d="M 63.289 185.658C 63.0724 185.658 62.8485 185.62 62.6314 185.543C 60.1531 184.652 57.6783 183.639 55.2721 182.542C 54.2951 182.092 53.8657 180.934 54.3102 179.955C 54.7546 178.976 55.9069 178.549 56.8873 178.991C 59.1985 180.046 61.5702 181.017 63.9501 181.871C 64.9612 182.236 65.4854 183.353 65.1208 184.37C 64.8366 185.162 64.0874 185.658 63.289 185.658ZM 135.239 182C 134.513 182 133.817 181.596 133.483 180.895C 133.015 179.924 133.426 178.758 134.395 178.293C 136.676 177.196 138.938 175.988 141.116 174.708C 142.043 174.159 143.234 174.475 143.781 175.405C 144.324 176.33 144.013 177.527 143.085 178.076C 140.816 179.409 138.459 180.667 136.079 181.809C 135.805 181.939 135.52 182 135.239 182ZM 49.141 179.173C 48.8177 179.173 48.4911 179.097 48.1907 178.921C 26.0793 166.456 9.57414 145.289 2.90657 120.854C 2.6218 119.818 3.23369 118.744 4.27153 118.462C 5.30547 118.191 6.37738 118.789 6.66264 119.826C 13.0561 143.263 28.8885 163.562 50.0995 175.524C 51.0346 176.053 51.3685 177.242 50.8403 178.183C 50.4826 178.815 49.8215 179.173 49.141 179.173ZM 148.646 174.122C 148.034 174.122 147.429 173.832 147.054 173.291C 146.434 172.411 146.643 171.196 147.521 170.575C 167.432 156.521 181.135 134.726 185.122 110.782C 185.297 109.715 186.293 108.995 187.362 109.174C 188.422 109.353 189.137 110.359 188.962 111.421C 184.808 136.39 170.518 159.111 149.764 173.763C 149.421 174.004 149.034 174.122 148.646 174.122ZM 3.04335 114.69C 2.12332 114.69 1.30649 114.035 1.13124 113.098C 0.656133 110.511 0.275951 107.863 0.00967688 105.219C -0.0964435 104.146 0.682421 103.189 1.75093 103.078C 2.86081 103.009 3.77695 103.753 3.88355 104.823C 4.13815 107.36 4.50324 109.905 4.95887 112.385C 5.15651 113.444 4.45748 114.462 3.40066 114.66C 3.28334 114.683 3.16165 114.69 3.04335 114.69ZM 188 105.311C 187.947 105.311 187.893 105.311 187.84 105.307C 186.769 105.219 185.97 104.274 186.058 103.2C 186.267 100.678 186.373 98.1105 186.373 95.573C 186.369 84.165 184.305 73.037 180.238 62.4974C 179.85 61.4934 180.348 60.3639 181.351 59.9756C 182.347 59.5828 183.48 60.0863 183.868 61.0918C 188.11 72.0808 190.262 83.6815 190.265 95.5735C 190.265 98.2154 190.155 100.892 189.938 103.521C 189.855 104.541 189.003 105.311 188 105.311ZM 178.949 56.5975C 178.227 56.5975 177.535 56.194 177.197 55.5003C 176.094 53.2224 174.878 50.963 173.586 48.7856C 173.034 47.8582 173.338 46.6614 174.262 46.1116C 175.19 45.5593 176.383 45.8676 176.931 46.7897C 178.276 49.0622 179.546 51.4187 180.698 53.7937C 181.169 54.7631 180.766 55.9311 179.8 56.4014C 179.527 56.5351 179.234 56.5975 178.949 56.5975ZM 22.8557 37.9055C 22.4225 37.9055 21.9815 37.7586 21.6203 37.4581C 20.7913 36.7721 20.6739 35.5437 21.3579 34.7133C 23.0456 32.6676 24.8321 30.6751 26.6678 28.7929C 27.4243 28.025 28.6558 28.0099 29.4201 28.7627C 30.1883 29.5169 30.2033 30.7512 29.4503 31.5211C 27.69 33.3248 25.9761 35.2353 24.357 37.1976C 23.9729 37.6635 23.4185 37.9055 22.8557 37.9055ZM 33.7233 26.7565C 33.1801 26.7565 32.6397 26.5282 32.2527 26.0842C 31.5493 25.2709 31.6365 24.0385 32.4504 23.3316C 51.6085 6.68134 76.8564 -1.66038 102.267 0.275026C 103.339 0.356989 104.145 1.29225 104.062 2.36656C 103.982 3.44086 103.028 4.23122 101.975 4.16487C 77.5939 2.30411 53.3799 10.3063 35.0012 26.2803C 34.6317 26.5999 34.1756 26.7565 33.7233 26.7565ZM 117.472 6.64719C 117.316 6.64719 117.16 6.62816 117.001 6.59011C 114.56 5.98221 112.047 5.46799 109.539 5.06403C 108.478 4.89278 107.756 3.89263 107.927 2.82809C 108.094 1.76549 109.071 1.02636 110.158 1.21273C 112.773 1.63376 115.393 2.16896 117.939 2.8032C 118.984 3.06227 119.619 4.12145 119.361 5.16697C 119.14 6.05442 118.347 6.64719 117.472 6.64719Z"/>
<path id="path9_fill" d="M 102.082 219.627C 102.036 219.627 101.991 219.627 101.945 219.623C 99.3416 219.444 96.6925 219.162 94.073 218.789C 93.0089 218.636 92.2675 217.649 92.4199 216.583C 92.5723 215.516 93.5527 214.777 94.6207 214.926C 97.1481 215.284 99.7028 215.558 102.219 215.734C 103.291 215.81 104.097 216.74 104.021 217.814C 103.952 218.842 103.097 219.627 102.082 219.627ZM 86.6875 217.432C 86.5507 217.432 86.41 217.417 86.2727 217.387C 61.6713 212.053 39.3656 198.243 23.4655 178.497C 22.7884 177.659 22.9218 176.433 23.7581 175.754C 24.5944 175.076 25.8221 175.21 26.4953 176.051C 41.837 195.1 63.3595 208.426 87.0939 213.573C 88.1468 213.802 88.8123 214.842 88.5879 215.893C 88.3902 216.808 87.5846 217.432 86.6875 217.432ZM 172.021 200.407C 171.405 200.407 170.797 200.114 170.421 199.573C 169.805 198.689 170.026 197.469 170.907 196.853C 172.986 195.405 175.043 193.858 177.02 192.262C 177.857 191.58 179.084 191.717 179.757 192.556C 180.43 193.394 180.3 194.62 179.464 195.299C 177.415 196.952 175.286 198.553 173.131 200.061C 172.793 200.297 172.405 200.407 172.021 200.407ZM 184.117 190.62C 183.596 190.62 183.075 190.414 182.695 190.002C 181.962 189.21 182.003 187.976 182.79 187.244C 200.659 170.562 212.387 148.096 215.811 123.988C 215.963 122.925 216.944 122.19 218.012 122.334C 219.076 122.487 219.817 123.47 219.665 124.537C 216.115 149.529 203.962 172.813 185.443 190.098C 185.071 190.448 184.592 190.62 184.117 190.62ZM 20.3145 172.988C 19.6987 172.988 19.0941 172.699 18.714 172.15C 17.2161 169.994 15.7718 167.746 14.4302 165.483C 13.8792 164.554 14.1829 163.358 15.1068 162.809C 16.0381 162.252 17.2278 162.565 17.7754 163.487C 19.0718 165.673 20.463 167.838 21.9112 169.925C 22.5275 170.809 22.3065 172.021 21.4249 172.638C 21.0861 172.874 20.6981 172.988 20.3145 172.988ZM 218.563 118.46C 218.517 118.46 218.471 118.456 218.422 118.456C 217.351 118.38 216.545 117.447 216.621 116.373C 216.795 113.847 216.887 111.274 216.887 108.719C 216.887 107.641 217.757 106.768 218.833 106.768C 219.909 106.768 220.779 107.641 220.779 108.719C 220.779 111.363 220.684 114.03 220.502 116.647C 220.429 117.675 219.575 118.46 218.563 118.46ZM 1.94695 95.147C 1.85543 95.147 1.7644 95.1411 1.67337 95.1279C 0.60876 94.9757 -0.132135 93.9887 0.0197438 92.9222C 0.388244 90.3106 0.859945 87.682 1.41489 85.1084C 1.64319 84.057 2.68103 83.394 3.73006 83.6145C 4.77909 83.8434 5.44405 84.8816 5.22013 85.9349C 4.68417 88.4148 4.23194 90.9522 3.87464 93.4706C 3.73347 94.4439 2.90106 95.147 1.94695 95.147ZM 5.23084 79.9135C 5.05218 79.9135 4.86574 79.8886 4.68368 79.8354C 3.65364 79.5325 3.06024 78.4489 3.36448 77.4146C 10.4385 53.1964 25.7763 31.881 46.5462 17.3925C 47.4244 16.7773 48.6409 16.9964 49.2567 17.8804C 49.8686 18.7645 49.6519 19.9793 48.7699 20.5964C 28.7258 34.5761 13.9278 55.143 7.1006 78.5113C 6.85039 79.3612 6.07493 79.9135 5.23084 79.9135ZM 210.546 68.8006C 209.783 68.8006 209.06 68.3474 208.749 67.597C 207.78 65.2543 206.708 62.9129 205.571 60.6424C 205.089 59.6803 205.477 58.5089 206.438 58.0249C 207.403 57.5434 208.57 57.9332 209.049 58.8933C 210.231 61.2459 211.337 63.6726 212.345 66.1032C 212.756 67.0975 212.284 68.2386 211.292 68.6518C 211.048 68.7528 210.794 68.8006 210.546 68.8006ZM 203.579 54.8835C 202.914 54.8835 202.268 54.5429 201.903 53.9311C 189.431 32.9187 170.01 16.6607 147.226 8.15557C 146.219 7.77844 145.705 6.65632 146.078 5.6469C 146.458 4.63358 147.583 4.13058 148.583 4.49844C 172.2 13.3158 192.324 30.1627 205.248 51.9347C 205.799 52.8607 205.496 54.0589 204.571 54.6093C 204.26 54.7961 203.917 54.8835 203.579 54.8835ZM 54.1947 16.7237C 53.5331 16.7237 52.8833 16.3826 52.5221 15.7713C 51.971 14.8439 52.2753 13.6471 53.1992 13.0968C 55.4452 11.7576 57.7794 10.4754 60.1398 9.28695C 61.1095 8.80932 62.2725 9.19377 62.7554 10.1539C 63.2383 11.118 62.8503 12.2889 61.8889 12.7733C 59.6117 13.9203 57.3578 15.1581 55.1911 16.4495C 54.8752 16.6363 54.533 16.7237 54.1947 16.7237ZM 140.516 5.82059C 140.338 5.82059 140.152 5.79571 139.969 5.74253C 137.551 5.03218 135.058 4.39745 132.565 3.85688C 131.515 3.62807 130.846 2.58986 131.074 1.53849C 131.302 0.485163 132.351 -0.181276 133.385 0.0436351C 135.97 0.60323 138.555 1.26089 141.063 1.99807C 142.097 2.30104 142.686 3.38462 142.387 4.41892C 142.136 5.26977 141.36 5.82059 140.516 5.82059Z"/>
<path id="path10_fill" d="M 60.3061 120C 27.42 120 -1.23058e-05 93.1516 -1.23058e-05 60C -1.23058e-05 26.8184 26.1357 0.000201517 59.1263 0.000201517L 60.2912 0.000201517C 93.2819 0.000201517 120 26.8184 120 60C 120.015 93.1516 93.3117 120 60.3061 120Z"/>
<path id="path11_stroke_2x" d="M 120 60L 115 60L 115 60.0022L 120 60ZM 60.3061 115C 30.1339 115 4.99999 90.3428 4.99999 60L -5.00001 60C -5.00001 95.9603 24.7061 125 60.3061 125L 60.3061 115ZM 4.99999 60C 4.99999 29.4942 28.9819 5.0002 59.1263 5.0002L 59.1263 -4.9998C 23.2894 -4.9998 -5.00001 24.1426 -5.00001 60L 4.99999 60ZM 59.1263 5.0002L 60.2912 5.0002L 60.2912 -4.9998L 59.1263 -4.9998L 59.1263 5.0002ZM 60.2912 5.0002C 90.4992 5.0002 115 29.5585 115 60L 125 60C 125 24.0783 96.0646 -4.9998 60.2912 -4.9998L 60.2912 5.0002ZM 115 60.0022C 115.014 90.414 90.527 115 60.3061 115L 60.3061 125C 96.0964 125 125.016 95.8892 125 59.9977L 115 60.0022Z"/>
<path id="path12_fill" d="M 75.3827 150C 34.275 150 -1.53822e-05 116.439 -1.53822e-05 75C -1.53822e-05 33.523 32.6696 0.000251896 73.9079 0.000251896L 75.364 0.000251896C 116.602 0.000251896 150 33.523 150 75C 150.019 116.439 116.64 150 75.3827 150Z"/>
<path id="path13_stroke_2x" d="M 150 75L 145 75L 145 75.0022L 150 75ZM 75.3827 145C 36.9889 145 4.99998 113.631 4.99998 75L -5.00002 75C -5.00002 119.248 31.5612 155 75.3827 155L 75.3827 145ZM 4.99998 75C 4.99998 36.1988 35.5159 5.00025 73.9079 5.00025L 73.9079 -4.99975C 29.8233 -4.99975 -5.00002 30.8472 -5.00002 75L 4.99998 75ZM 73.9079 5.00025L 75.364 5.00025L 75.364 -4.99975L 73.9079 -4.99975L 73.9079 5.00025ZM 75.364 5.00025C 113.82 5.00025 145 36.2631 145 75L 155 75C 155 30.7829 119.385 -4.99975 75.364 -4.99975L 75.364 5.00025ZM 145 75.0022C 145.017 113.702 113.855 145 75.3827 145L 75.3827 155C 119.424 155 155.02 119.177 155 74.9977L 145 75.0022Z"/>
<path id="path14_fill" d="M 22.528 46.08L 2.304 46.08C 1.49333 46.08 0.896 45.9093 0.512 45.568C 0.170667 45.184 0 44.5867 0 43.776L 0 36.288C 0 35.4773 0.170667 34.9013 0.512 34.56C 0.896 34.176 1.49333 33.984 2.304 33.984L 19.52 33.984C 20.0747 33.984 20.48 33.8133 20.736 33.472C 21.0347 33.088 21.184 32.64 21.184 32.128C 21.184 31.4027 21.0347 30.8693 20.736 30.528C 20.48 30.1867 20.0747 29.9947 19.52 29.952L 9.92 28.608C 6.93333 28.1813 4.52267 27.2 2.688 25.664C 0.896 24.128 0 21.568 0 17.984L 0 11.264C 0 7.63733 1.17333 4.864 3.52 2.944C 5.86667 0.981333 9.10933 0 13.248 0L 31.168 0C 31.9787 0 32.5547 0.192 32.896 0.576C 33.28 0.917333 33.472 1.49333 33.472 2.304L 33.472 9.92C 33.472 10.7307 33.28 11.328 32.896 11.712C 32.5547 12.0533 31.9787 12.224 31.168 12.224L 16.256 12.224C 15.7013 12.224 15.2747 12.416 14.976 12.8C 14.6773 13.1413 14.528 13.5893 14.528 14.144C 14.528 14.6987 14.6773 15.168 14.976 15.552C 15.2747 15.936 15.7013 16.1493 16.256 16.192L 25.792 17.472C 28.7787 17.8987 31.1893 18.88 33.024 20.416C 34.8587 21.952 35.776 24.512 35.776 28.096L 35.776 34.816C 35.776 38.4427 34.5813 41.2373 32.192 43.2C 29.8453 45.12 26.624 46.08 22.528 46.08Z"/>
</defs>
</svg>
